
<svg id="visual" viewBox="0 0 100 1000" height="100px" width="1000px" xmlns="http://www.w3.org/2000/svg" xmlns:xlink="http://www.w3.org/1999/xlink" version="1.1"><rect x="0" y="0" width="960" height="540" fill="#ffffff"></rect><path d="M0 422L22.8 413.2C45.7 404.3 91.3 386.7 137 385.3C182.7 384 228.3 399 274 408.8C319.7 418.7 365.3 423.3 411.2 416.8C457 410.3 503 392.7 548.8 383.5C594.7 374.3 640.3 373.7 686 379.7C731.7 385.7 777.3 398.3 823 404C868.7 409.7 914.3 408.3 937.2 407.7L960 407L960 541L937.2 541C914.3 541 868.7 541 823 541C777.3 541 731.7 541 686 541C640.3 541 594.7 541 548.8 541C503 541 457 541 411.2 541C365.3 541 319.7 541 274 541C228.3 541 182.7 541 137 541C91.3 541 45.7 541 22.8 541L0 541Z" fill="#eeedea"></path><path d="M0 452L22.8 444.7C45.7 437.3 91.3 422.7 137 413.7C182.7 404.7 228.3 401.3 274 407C319.7 412.7 365.3 427.3 411.2 435.7C457 444 503 446 548.8 443.2C594.7 440.3 640.3 432.7 686 430C731.7 427.3 777.3 429.7 823 432.3C868.7 435 914.3 438 937.2 439.5L960 441L960 541L937.2 541C914.3 541 868.7 541 823 541C777.3 541 731.7 541 686 541C640.3 541 594.7 541 548.8 541C503 541 457 541 411.2 541C365.3 541 319.7 541 274 541C228.3 541 182.7 541 137 541C91.3 541 45.7 541 22.8 541L0 541Z" fill="#e3e1dd"></path><path d="M0 422L22.8 429C45.7 436 91.3 450 137 455.3C182.7 460.7 228.3 457.3 274 456.3C319.7 455.3 365.3 456.7 411.2 454.2C457 451.7 503 445.3 548.8 443.7C594.7 442 640.3 445 686 442.3C731.7 439.7 777.3 431.3 823 432.8C868.7 434.3 914.3 445.7 937.2 451.3L960 457L960 541L937.2 541C914.3 541 868.7 541 823 541C777.3 541 731.7 541 686 541C640.3 541 594.7 541 548.8 541C503 541 457 541 411.2 541C365.3 541 319.7 541 274 541C228.3 541 182.7 541 137 541C91.3 541 45.7 541 22.8 541L0 541Z" fill="#d9d6d0"></path><path d="M0 485L22.8 483.3C45.7 481.7 91.3 478.3 137 475.2C182.7 472 228.3 469 274 468.7C319.7 468.3 365.3 470.7 411.2 475.2C457 479.7 503 486.3 548.8 490C594.7 493.7 640.3 494.3 686 492.7C731.7 491 777.3 487 823 481.2C868.7 475.3 914.3 467.7 937.2 463.8L960 460L960 541L937.2 541C914.3 541 868.7 541 823 541C777.3 541 731.7 541 686 541C640.3 541 594.7 541 548.8 541C503 541 457 541 411.2 541C365.3 541 319.7 541 274 541C228.3 541 182.7 541 137 541C91.3 541 45.7 541 22.8 541L0 541Z" fill="#cecac3"></path><path d="M0 493L22.8 497.7C45.7 502.3 91.3 511.7 137 513.8C182.7 516 228.3 511 274 506.5C319.7 502 365.3 498 411.2 497.5C457 497 503 500 548.8 503.7C594.7 507.3 640.3 511.7 686 510.7C731.7 509.7 777.3 503.3 823 502.3C868.7 501.3 914.3 505.7 937.2 507.8L960 510L960 541L937.2 541C914.3 541 868.7 541 823 541C777.3 541 731.7 541 686 541C640.3 541 594.7 541 548.8 541C503 541 457 541 411.2 541C365.3 541 319.7 541 274 541C228.3 541 182.7 541 137 541C91.3 541 45.7 541 22.8 541L0 541Z" fill="#c4bfb6"></path></svg>